<svg xmlns="http://www.w3.org/2000/svg" xmlns:xlink="http://www.w3.org/1999/xlink" width="1080" zoomAndPan="magnify" viewBox="0 0 810 809.999993" height="1080" preserveAspectRatio="xMidYMid meet" version="1.0"><defs><clipPath id="0663503a0d"><path d="M 487 211 L 666.894531 211 L 666.894531 450 L 487 450 Z M 487 211 " clip-rule="nonzero"/></clipPath></defs><g clip-path="url(#0663503a0d)"><path fill="#c9edf7" d="M 587.796875 273.753906 C 597.433594 268.902344 606.472656 261.601562 616.488281 259.824219 C 647.921875 254.253906 666.320312 270.457031 666.566406 302.566406 C 666.832031 336.820312 654.15625 365.855469 631.292969 391.445312 C 609.636719 415.6875 582.777344 432.039062 554.65625 446.941406 C 547.125 450.9375 540.933594 449.164062 533.054688 444.492188 C 517.367188 435.195312 513.78125 419.074219 508.160156 404.890625 C 492.578125 365.550781 482.707031 324.785156 489.496094 281.886719 C 492.921875 260.261719 499.132812 239.746094 516.113281 224.1875 C 528.839844 212.523438 543.425781 207.65625 559.550781 214.558594 C 573.757812 220.640625 581.96875 232.523438 584.160156 248.132812 C 585.371094 256.726562 586.597656 265.316406 587.796875 273.753906 Z M 538.15625 424.816406 C 540.851562 423.296875 543.546875 421.667969 546.335938 420.21875 C 569.441406 408.234375 591.472656 394.945312 609.394531 375.433594 C 624.246094 359.269531 635.015625 341.164062 638.28125 319.515625 C 639.625 310.597656 637.976562 301.109375 636.878906 291.980469 C 636.0625 285.171875 630.570312 283.382812 625.050781 285.546875 C 618.386719 288.15625 611.414062 291.214844 606.117188 295.847656 C 592.214844 308.007812 582.339844 322.898438 578.828125 341.59375 C 577.234375 350.058594 570.324219 354.867188 563.203125 353.828125 C 554.628906 352.574219 549.511719 346.300781 550.554688 337.113281 C 551.34375 330.175781 553.132812 323.347656 554.601562 316.496094 C 559.230469 294.910156 560.882812 273.128906 556.582031 251.410156 C 555.664062 246.765625 551.128906 241.242188 546.851562 239.402344 C 543.820312 238.097656 536.824219 241.09375 534.382812 244.292969 C 528.652344 251.804688 523.046875 260.085938 520.121094 268.957031 C 507.839844 306.203125 513.59375 343.285156 523.574219 379.945312 C 527.597656 394.738281 533.019531 409.152344 538.15625 424.816406 Z M 538.15625 424.816406 " fill-opacity="1" fill-rule="nonzero"/></g><path fill="#fed7fe" d="M 305.660156 163.277344 C 307.871094 158.375 309.882812 153.863281 311.933594 149.375 C 323.265625 124.601562 350.652344 120.527344 372.066406 137.824219 C 393.234375 154.917969 399.753906 178.75 402.085938 204.269531 C 404.292969 228.375 400.546875 251.65625 388.621094 272.894531 C 378.359375 291.171875 367.035156 308.859375 355.945312 326.664062 C 353.976562 329.824219 351.042969 332.460938 348.261719 335.019531 C 341.703125 341.066406 334.78125 342.25 326.90625 336.925781 C 289.691406 311.757812 253.597656 285.136719 234.808594 242.503906 C 223.804688 217.542969 216.128906 191.183594 225.378906 163.460938 C 236.15625 131.164062 267.074219 128.121094 289.875 146.648438 C 295.6875 151.371094 300.304688 157.5625 305.660156 163.277344 Z M 328.796875 314.5625 C 331.664062 311.292969 333.90625 309.019531 335.835938 306.503906 C 361.328125 273.300781 381.59375 238.414062 372.894531 193.894531 C 370.242188 180.332031 365.40625 168.101562 354.527344 159.027344 C 345.226562 151.261719 339.988281 152.605469 335.109375 163.453125 C 327.082031 181.304688 326.773438 199.613281 331.640625 218.226562 C 334.449219 228.96875 331.273438 237.507812 323.183594 240.183594 C 314.277344 243.132812 307.144531 238.292969 303.074219 227.109375 C 299.386719 216.972656 295.847656 206.703125 291.132812 197.035156 C 286.699219 187.949219 281.742188 178.773438 275.214844 171.191406 C 271.304688 166.652344 262.972656 161.796875 258.398438 163.136719 C 253.976562 164.433594 249.890625 173.203125 249.019531 179.179688 C 245.796875 201.292969 252.21875 222.007812 262.03125 241.476562 C 277.273438 271.710938 302.953125 292.625 328.796875 314.5625 Z M 328.796875 314.5625 " fill-opacity="1" fill-rule="nonzero"/><path fill="#c9edf7" d="M 354.753906 467.585938 C 361.472656 461.867188 367.246094 454.84375 374.667969 451.03125 C 397.34375 439.378906 419.53125 458.238281 427.445312 476.425781 C 441.554688 508.855469 433.394531 538.269531 414.363281 565.609375 C 401.820312 583.632812 387.136719 599.960938 368.261719 611.820312 C 353.074219 621.363281 348.601562 620.964844 336.453125 608.3125 C 311.300781 582.125 291.050781 552.859375 281.828125 517.144531 C 277.453125 500.199219 276.917969 483.097656 282.835938 466.296875 C 291.054688 442.96875 317.535156 434.785156 337.082031 449.933594 C 343.890625 455.210938 349.402344 462.160156 354.753906 467.585938 Z M 305.542969 523.707031 C 306.339844 523.679688 307.136719 523.648438 307.933594 523.617188 C 316.371094 547.171875 329.566406 567.933594 345.007812 587.453125 C 348.554688 591.9375 351.449219 590.003906 354.667969 587.8125 C 375.644531 573.523438 392.203125 555.25 402.230469 531.859375 C 409.441406 515.039062 410.808594 497.691406 399.21875 481.9375 C 396.621094 478.40625 391.171875 474.898438 387.21875 475.09375 C 384.136719 475.25 380.160156 480.710938 378.664062 484.613281 C 375.863281 491.902344 374.164062 499.699219 372.789062 507.425781 C 371.667969 513.710938 371.980469 520.234375 371.117188 526.582031 C 370.183594 533.429688 366.769531 539.300781 359.507812 540.203125 C 351.851562 541.160156 346.8125 536.707031 344.832031 529.214844 C 343.863281 525.566406 343.476562 521.75 342.332031 518.164062 C 337.941406 504.421875 333.898438 490.523438 328.585938 477.136719 C 326.226562 471.183594 320.128906 465.164062 313.546875 468.019531 C 309.136719 469.933594 304.761719 477.199219 304.460938 482.308594 C 303.648438 496.039062 305.03125 509.898438 305.542969 523.707031 Z M 305.542969 523.707031 " fill-opacity="1" fill-rule="nonzero"/></svg>